# xmcd
# 
# Track frame offsets:
#     150
#     16193
#     28330
#     42198
#     58991
#     76159
#     94377
#     110945
#     130288
#     147306
#     163574
#     177967
# 
# Disc length: 2686
# 
# Revision: 8
# Processed by: cddbd v1.5.2PL0 Copyright (c) Steve Scherf et al.
# Submitted via: fre:ac v1.0.31
# 
DISCID=a80a7c0c
DTITLE=Shania Twain - Wild And Wicked
DYEAR=2004
DGENRE=Pop
TTITLE0=For The Love Of Him
TTITLE1=Bite My Lip
TTITLE2=Wild And Wicked
TTITLE3=Send It With Love
TTITLE4=(Don't Gimme That) Once Over
TTITLE5=Hate To Love
TTITLE6=LUV Eyes
TTITLE7=I Lost My Heart When I Found You
TTITLE8=The Rhythm Made Me Do It
TTITLE9=Two Hearts One Love
TTITLE10=Half Breed
TTITLE11=For The Love Of Him
EXTD=Jahr: 2004
EXTT0=
EXTT1=
EXTT2=
EXTT3=
EXTT4=
EXTT5=
EXTT6=
EXTT7=
EXTT8=
EXTT9=
EXTT10=
EXTT11=
PLAYORDER=
